
  <svg
    width="1000"
    height="1000"
    viewBox="0 0 1000 1000"
    xmlns="http://www.w3.org/2000/svg"
  >
    <defs>
      
      
      
      
      
      
      
      <clipPath id="shape">
        <path fill="currentColor" d="M882.5,607.5Q796,715,708,792Q620,869,503.5,858.5Q387,848,244.5,818.5Q102,789,99,644.5Q96,500,165,403.5Q234,307,303,206.5Q372,106,501,103Q630,100,690.5,209Q751,318,860,409Q969,500,882.5,607.5Z"></path>
      </clipPath>
    </defs>
  
    

    <g  clip-path="url(#shape)">
      <path fill="#e8e9fd" d="M882.5,607.5Q796,715,708,792Q620,869,503.5,858.5Q387,848,244.5,818.5Q102,789,99,644.5Q96,500,165,403.5Q234,307,303,206.5Q372,106,501,103Q630,100,690.5,209Q751,318,860,409Q969,500,882.5,607.5Z" />
    </g>

    
  
  </svg>